<?xml version="1.0" encoding="UTF-8"?>
<svg width="161px" height="24px" viewBox="0 0 161 24" version="1.1" xmlns="http://www.w3.org/2000/svg" xmlns:xlink="http://www.w3.org/1999/xlink">
    <title>Group 5 Copy 2</title>
    <defs>
        <polygon id="path-1" points="0 0 95 0 95 24 0 24"></polygon>
    </defs>
    <g id="Page-1" stroke="none" stroke-width="1" fill="none" fill-rule="evenodd">
        <g id="Large-Copy-2" transform="translate(-38, -31)">
            <g id="Group-5-Copy-2" transform="translate(38, 31)">
                <path d="M156.794271,7 L152.564013,12.187729 L150.142936,15.378217 L150.020739,15.378217 L150.020739,7 L146.793042,7 L146.793042,24 L150.020739,24 L150.020739,18.9826918 L152.294937,16.3039185 L157.161014,24 L161,24 L154.569134,14.0875436 L160.511212,7 L156.794271,7 Z M140.459691,7 L140.459691,19.2508406 L140.386252,19.2508406 L138.625524,15.7193602 L133.49022,7 L129.94484,7 L129.94484,24 L133.001432,24 L133.001432,11.7493102 L133.074568,11.7493102 L134.835296,15.2806398 L139.9706,24 L143.516283,24 L143.516283,7 L140.459691,7 Z M119.210125,7 L114.979563,12.0173082 L116.984685,13.697838 L120.701474,9.3134997 L120.921641,9.3134997 L120.921641,21.1473372 L116.22667,21.1473372 L116.22667,24 L127.988627,24 L127.988627,21.1473372 L124.076202,21.1473372 L124.076202,7 L119.210125,7 Z M104,7 L104,24 L113.952624,24 L113.952624,21.1505043 L107.228001,21.1505043 L107.228001,7 L104,7 Z" id="Fill-1" fill="#FFF"></path>
                <g id="Group-4">
                    <mask id="mask-2" fill="white">
                        <use xlink:href="#path-1"></use>
                    </mask>
                    <g id="Clip-3"></g>
                    <path d="M95,23.5263677 C94.9050412,21.284305 94.8734391,19.9263052 94.8734391,18.6631842 L94.8734391,12.5999292 C94.8734391,8.96834202 92.4358064,6.69475464 88.6053933,6.69475464 C84.8065823,6.69475464 82.1790319,8.84209084 81.9259101,12.1262969 L84.5850626,12.1262969 C84.7749802,10.3263418 86.3578309,9.0947455 88.5420365,9.0947455 C90.8847104,9.0947455 92.2142867,10.4210683 92.2142867,12.8210591 L92.2142867,15.4105029 C92.2142867,19.1052918 90.219846,21.6000091 87.244215,21.6000091 C85.5980076,21.6000091 84.3949922,20.6210675 84.3949922,19.2000183 C84.3949922,17.5263144 85.6613644,16.3894445 88.0354877,15.979014 L89.4284207,15.7263593 C90.1248872,15.6316329 90.5996813,15.0315971 90.5047225,14.3368348 C90.4097636,13.6105478 89.7450519,13.199965 88.9218718,13.3263685 L87.7190091,13.5158214 C83.8885961,14.1158572 81.7042377,16.1684669 81.7042377,19.2000183 C81.7042377,22.0421167 83.8252393,24 86.9275838,24 C89.2701051,24 91.1378322,22.8316054 92.3408475,20.6842692 L92.3408475,23.5263677 L95,23.5263677 Z M78.3170167,16.0737404 C78.9501264,10.7367724 75.7528231,6.69475464 70.9093123,6.69475464 C66.2558719,6.69475464 62.9002529,10.3263418 62.9002529,15.3474535 C62.9002529,20.4316146 66.1925151,24 70.9093123,24 C74.6131645,24 77.4939893,21.8526638 78.1903032,18.5684578 L75.4045898,18.5684578 C74.898041,20.4000899 73.1886295,21.473758 70.8777103,21.473758 C67.6170501,21.473758 65.5594054,19.1052918 65.5594054,15.3474535 C65.5594054,11.6209875 67.6488049,9.22099668 70.8777103,9.22099668 C73.6002195,9.22099668 75.3729878,10.9579023 75.5311507,13.6737496 L68.9466264,13.6737496 C68.2501599,13.6737496 67.712009,14.2105836 67.712009,14.8736689 C67.712009,15.5369064 68.2501599,16.0737404 68.9466264,16.0737404 L78.3170167,16.0737404 Z M55.9357406,23.5263677 L58.6900045,23.5263677 L58.6900045,12.7578574 C58.6900045,9.03154376 56.3789326,6.69475464 52.7068352,6.69475464 C50.6491904,6.69475464 48.5281888,7.76842274 47.5152438,9.18947196 L47.5152438,-6.09173389e-05 L44.7609798,-6.09173389e-05 L44.7609798,23.5263677 L47.5152438,23.5263677 L47.5152438,13.8632025 C47.5152438,11.2736064 49.5728886,9.28419842 52.1370822,9.28419842 C54.4796035,9.28419842 55.9357406,10.7999741 55.9357406,13.2631667 L55.9357406,23.5263677 Z M39.3484794,23.8422241 C40.076548,23.8422241 40.9945342,23.7158206 41.5960419,23.5263677 L41.5960419,21.1263768 C41.057891,21.252628 40.3614245,21.3473545 39.6967127,21.3473545 C37.8921897,21.3473545 36.9108467,20.3684128 36.9108467,18.5684578 L36.9108467,12.9473103 C36.9108467,12.2210233 36.277737,11.6209875 35.5496684,11.6209875 C34.7898451,11.6209875 34.1567354,12.2527004 34.1567354,12.9473103 L34.1567354,18.6316595 C34.1567354,21.9473903 36.0562173,23.8422241 39.3484794,23.8422241 L39.3484794,23.8422241 Z M30.9910341,9.63157955 L41.089493,9.63157955 L41.089493,7.16838695 L36.9108467,7.16838695 L36.9108467,1.64211825 L34.1567354,3.06316747 L34.1567354,7.16838695 L30.9910341,7.16838695 L30.9910341,9.63157955 Z M24.8497018,23.5263677 L27.6038131,23.5263677 L27.6038131,-6.09173389e-05 L24.8497018,-6.09173389e-05 L24.8497018,23.5263677 Z M18.3291449,23.5263677 L21.3681327,23.5263677 L12.2788021,0.798565397 L12.2827714,0.789427796 L9.24378368,0.789427796 L-4.58000766e-05,23.5263677 L3.03909462,23.5263677 L5.44497265,17.6210408 L11.7128658,17.6210408 C12.441087,17.6210408 13.042442,17.0210051 13.042442,16.3263951 C13.042442,15.5999558 12.441087,15.0000723 11.7128658,15.0000723 L6.52127446,15.0000723 L10.7783916,4.49929374 L18.3291449,23.5263677 Z" id="Fill-2" fill="#FFFFFF" mask="url(#mask-2)"></path>
                </g>
            </g>
        </g>
    </g>
</svg>